# xmcd
#
# Track frame offsets: 
#        150
#        17703
#        29352
#        48330
#        58267
#        72437
#        85656
#        108271
#        127610
#        142563
#        166048
#        187664
#        202027
#        224134
#        256083
#        269909
#        282775
#        298755
#        309092
#
# Disc length: 4443 seconds
#
# Revision: 0
# Processed by: cddbd v1.5.2PL0 Copyright (c) Steve Scherf et al.
# Submitted via: ExactAudioCopyFreeDBPlugin 1.0
#
DISCID=0d115913
DTITLE=Various Artist - Essential Blaxploitation CD1
DYEAR=2012
DGENRE=Funk
TTITLE0=Curtis Mayfield - Superfly
TTITLE1=Lightnin' Rod - Sport
TTITLE2=Aaron Neville - Hercules
TTITLE3=Bobby Womack - Harlem Clavinette
TTITLE4=The Meters  - Ease Back
TTITLE5=Joe Tex - Papa Was Too
TTITLE6=Curtis Mayfield - Pusherman
TTITLE7=The Impressions - On The Move
TTITLE8=Maceo and All The King's Men - Mag-Poo
TTITLE9=Gil Scott-Heron And Brian Jackson - The Bottle
TTITLE10=The Staple Singers - Funky Love
TTITLE11=Bobby Womack - Harlem Love Theme
TTITLE12=Curtis Mayfield - No Thing On Me (Cocaine Song)
TTITLE13=Leroy Hutson - So Nice
TTITLE14=Minnie Ripperton - Oh, By The Way
TTITLE15=Bobby Womack - If You Don't Want My Love
TTITLE16=Linda Clifford - Gypsy Lady
TTITLE17=Jesse Anderson - Mighty, Mighty
TTITLE18=Curtis Mayfield - Freddie's Dead
EXTD=
EXTT0=
EXTT1=
EXTT2=
EXTT3=
EXTT4=
EXTT5=
EXTT6=
EXTT7=
EXTT8=
EXTT9=
EXTT10=
EXTT11=
EXTT12=
EXTT13=
EXTT14=
EXTT15=
EXTT16=
EXTT17=
EXTT18=
PLAYORDER=
